{"title":"ID2 Shadwell Army 2016 Movies HDRip XviD AAC New +Sample ~ ☻rDX☻","uid":15552827,"size":739461999,"categoryP":"video","categoryS":"movies","magnet":"?xt=urn:btih:f72ae73551ba8047b64bad3eaa157276fa283e27&amp;dn=ID2+Shadwell+Army+2016+Movies+HDRip+XviD+AAC+New+%2BSample+%7E+%E2%98%BBrDX%E2%98%BB&amp;tr=udp%3A%2F%2Ftracker.leechers-paradise.org%3A6969&amp;tr=udp%3A%2F%2Fzer0day.ch%3A1337&amp;tr=udp%3A%2F%2Fopen.demonii.com%3A1337&amp;tr=udp%3A%2F%2Ftracker.coppersurfer.tk%3A6969&amp;tr=udp%3A%2F%2Fexodus.desync.com%3A6969","seeders":0,"leechers":1,"uploader":"basicssom","files":2,"time":1471041162,"description":"----------------------------------------------------------------\r\nID2 Shadwell Army 2016 English Movies HDRip XviD AAC New Source with Sample ☻rDX☻\r\n\r\nSCREEN SHOTS &amp; POSTER:\r\n  \nhttp://postimage.co.nr/2016/8/gadget/index.htm  \nhttp://postimage.co.nr/2016/8/gadget/1.html  \nhttp://postimage.co.nr/2016/8/gadget/2.html  \nhttp://postimage.co.nr/2016/8/gadget/3.html  \nhttp://postimage.co.nr/2016/8/gadget/4.html  \nhttp://postimage.co.nr/2016/8/gadget/5.html  \nhttp://postimage.co.nr/2016/8/gadget/6.html  \nhttp://postimage.co.nr/2016/8/gadget/7.html  \nhttp://postimage.co.nr/2016/8/gadget/8.html  \nhttp://postimage.co.nr/2016/8/gadget/9.html  \nhttp://postimage.co.nr/2016/8/gadget/10.html\r\n\r\nFormat                                   : Matroska\r\nFormat version                           : Version 4 / Version 2\r\nFile size                                : 693 MiB\r\nDuration                                 : 1 h 31 min\r\nOverall bit rate                         : 1 058 kb/s\r\nMovie name                               : ID2 Shadwell Army 2016 English Movies HDRip XviD AAC New Source ☻rDX☻\r\n\r\nVideo\r\nID                                       : 1\r\nFormat                                   : MPEG-4 Visual\r\nFormat profile                           : Advanced   \r\nFormat settings, BVOP                    : 2\r\nFormat settings, QPel                    : No\r\nFormat settings, GMC                     : No warppoints\r\nFormat settings, Matrix                  : Default (H.263)\r\nMuxing mode                              : Packed bitstream\r\nCodec ID                                 : V_MS/VFW/FOURCC / XVID\r\nCodec ID/Hint                            : XviD\r\nDuration                                 : 1 h 31 min\r\nBit rate                                 : 909 kb/s\r\nWidth                                    : 640 pixels\r\nHeight                                   : 344 pixels\r\nDisplay aspect ratio                     : 1.85:1\r\nFrame rate mode                          : Constant\r\nFrame rate                               : 23.976 (24000/1001) FPS\r\nColor space                              : YUV\r\nChroma subsampling                       : 4:2:0\r\nBit depth                                : 8 bits\r\nScan type                                : Progressive\r\nCompression mode                         : Lossy\r\nBits/(Pixel*Frame)                       : 0.172\r\nStream size                              : 596 MiB (86%)\r\nTitle                                    : ☻rDX☻\r\nWriting library                          : XviD 64\r\nDefault                                  : Yes\r\nForced                                   : No\r\n\r\nAudio\r\nID                                       : 2\r\nFormat                                   : MPEG Audio\r\nFormat version                           : Version 1\r\nFormat profile                           : Layer 3\r\nMode                                     : Joint stereo\r\nCodec ID                                 : A_MPEG/L3\r\nCodec ID/Hint                            : MP3\r\nDuration                                 : 1 h 32 min\r\nBit rate mode                            : Constant\r\nBit rate                                 : 128 kb/s\r\nChannel(s)                               : 2 channels\r\nSampling rate                            : 48.0 kHz\r\nCompression mode                         : Lossy\r\nStream size                              : 84.2 MiB (12%)\r\nTitle                                    : ☻rDX☻\r\nWriting library                          : LAME3.99r\r\nEncoding settings                        : -m j -V 4 -q 3 -lowpass 17 -b 128\r\nDefault                                  : Yes\r\nForced                                   : No\r\n\r\nIMDB \nhttp://www.imdb.com/title/tt3652964/","torrent":{"xt":"urn:btih:f72ae73551ba8047b64bad3eaa157276fa283e27","amp;dn":"ID2+Shadwell+Army+2016+Movies+HDRip+XviD+AAC+New+%2BSample+%7E+%E2%98%BBrDX%E2%98%BB","amp;tr":["udp%3A%2F%2Ftracker.leechers-paradise.org%3A6969","udp%3A%2F%2Fzer0day.ch%3A1337","udp%3A%2F%2Fopen.demonii.com%3A1337","udp%3A%2F%2Ftracker.coppersurfer.tk%3A6969","udp%3A%2F%2Fexodus.desync.com%3A6969"],"infoHash":"f72ae73551ba8047b64bad3eaa157276fa283e27","infoHashBuffer":{"type":"Buffer","data":[247,42,231,53,81,186,128,71,182,75,173,62,170,21,114,118,250,40,62,39]},"announce":[],"urlList":[]}}